<svg id="圖層_1" data-name="圖層 1" xmlns="http://www.w3.org/2000/svg" viewBox="0 0 166.67 166.67"><defs><style>.cls-1{fill:#bfbfbf;}</style></defs><path class="cls-1" d="M16.67,100A83.33,83.33,0,1,0,100,16.67,83.33,83.33,0,0,0,16.67,100Zm16.66,0a66.67,66.67,0,0,1,133.34,0v0a66.67,66.67,0,0,1-133.34,0ZM94.11,69.11l-25,25a8.33,8.33,0,0,0,11.78,11.78L91.67,95.12V125a8.33,8.33,0,1,0,16.66,0V95.12l10.78,10.77a8.33,8.33,0,0,0,11.78-11.78l-25-25a8.34,8.34,0,0,0-11.78,0Z" transform="translate(-16.67 -16.67)"/></svg>