<?xml version="1.0" standalone="no"?><!DOCTYPE svg PUBLIC "-//W3C//DTD SVG 1.1//EN" "http://www.w3.org/Graphics/SVG/1.1/DTD/svg11.dtd"><svg t="1602944333867" class="icon" viewBox="0 0 1024 1024" version="1.1" xmlns="http://www.w3.org/2000/svg" p-id="6616" xmlns:xlink="http://www.w3.org/1999/xlink" width="200" height="200"><defs><style type="text/css"></style></defs><path d="M520.533 273.067c40.534 0 78.934 10.666 115.2 32s64 49.066 83.2 83.2c21.334 36.266 32 74.666 32 115.2s-10.666 78.933-32 115.2c-21.333 36.266-49.066 64-83.2 83.2-36.266 21.333-74.666 32-115.2 32s-78.933-10.667-115.2-32c-36.266-21.334-64-49.067-83.2-83.2-21.333-36.267-32-74.667-32-115.2s10.667-78.934 32-115.2 49.067-64 83.2-83.2 74.667-32 115.2-32z m0 379.733c40.534 0 76.8-14.933 106.667-44.8 29.867-29.867 44.8-64 44.8-106.667s-14.933-76.8-44.8-106.666c-29.867-29.867-64-44.8-106.667-44.8s-76.8 14.933-106.666 44.8c-29.867 29.866-44.8 64-44.8 106.666S384 578.133 413.867 608c29.866 29.867 66.133 44.8 106.666 44.8z m294.4-388.267c-2.133 14.934-6.4 27.734-17.066 38.4s-21.334 14.934-36.267 14.934-27.733-4.267-38.4-14.934c-10.667-10.666-17.067-23.466-17.067-38.4s4.267-27.733 17.067-38.4c10.667-10.666 23.467-14.933 38.4-14.933s27.733 4.267 38.4 14.933c8.533 10.667 14.933 23.467 14.933 38.4zM966.4 317.867c2.133 36.266 2.133 100.266 2.133 185.6s0 149.333-2.133 187.733c-2.133 38.4-8.533 70.4-17.067 98.133-12.8 34.134-29.866 61.867-55.466 87.467s-53.334 42.667-87.467 55.467c-27.733 8.533-61.867 14.933-98.133 17.066S608 951.467 520.533 951.467s-149.333 0-187.733-2.134-70.4-8.533-98.133-19.2C200.533 919.467 172.8 902.4 147.2 876.8s-42.667-53.333-55.467-87.467C83.2 761.6 76.8 727.467 74.667 691.2c-2.134-38.4-2.134-100.267-2.134-187.733s0-149.334 2.134-187.734 8.533-70.4 17.066-98.133c12.8-34.133 29.867-61.867 55.467-87.467s53.333-42.666 87.467-55.466C262.4 66.133 296.533 59.733 332.8 57.6s100.267-2.133 187.733-2.133 149.334 0 187.734 2.133 70.4 8.533 98.133 17.067c34.133 12.8 61.867 29.866 87.467 55.466s42.666 53.334 55.466 87.467c8.534 27.733 14.934 61.867 17.067 100.267zM870.4 768c8.533-23.467 12.8-57.6 17.067-108.8 2.133-29.867 2.133-70.4 2.133-123.733v-64c0-55.467 0-96-2.133-123.734-2.134-51.2-8.534-87.466-17.067-108.8-14.933-40.533-44.8-70.4-85.333-85.333-21.334-8.533-57.6-12.8-108.8-14.933-29.867-2.134-70.4-2.134-123.734-2.134h-64c-53.333 0-93.866 0-123.733 2.134C315.733 140.8 279.467 147.2 256 153.6c-40.533 14.933-70.4 44.8-85.333 85.333-8.534 21.334-12.8 57.6-14.934 108.8-2.133 29.867-2.133 70.4-2.133 123.734v64c0 53.333 0 93.866 2.133 123.733 2.134 49.067 8.534 85.333 14.934 108.8 17.066 40.533 46.933 70.4 85.333 85.333 23.467 8.534 57.6 12.8 108.8 17.067 29.867 2.133 70.4 2.133 123.733 2.133h64c55.467 0 96 0 123.734-2.133 51.2-2.133 87.466-8.533 108.8-17.067 40.533-17.066 70.4-44.8 85.333-85.333z" p-id="6617" fill="#ffffff"></path></svg>